Normalized EMG Linear Envelopes
nRows=137
nColumns=4

endheader
time	 med_gas_r	  soleus_r	 tib_ant_r	
2.5625	  0.076533	  0.046382	  0.015177	
2.625	  0.079852	  0.045254	  0.015500	
2.6875	  0.082998	  0.045170	  0.016226	
2.75	  0.081278	  0.045768	  0.016683	
2.8125	  0.075675	  0.046655	  0.016543	
2.875	  0.071332	  0.046473	  0.016177	
2.9375	  0.070726	  0.044634	  0.016147	
3	  0.072381	  0.042774	  0.016436	
3.0625	  0.075159	  0.042018	  0.016630	
3.125	  0.079038	  0.041960	  0.016692	
3.1875	  0.081607	  0.042027	  0.016797	
3.25	  0.080971	  0.042357	  0.016791	
3.3125	  0.077515	  0.042902	  0.016649	
3.375	  0.071743	  0.043219	  0.016306	
3.4375	  0.066578	  0.043419	  0.015655	
3.5	  0.064180	  0.044126	  0.015231	
3.5625	  0.064945	  0.045407	  0.015178	
3.625	  0.068404	  0.046432	  0.015372	
3.6875	  0.073494	  0.046996	  0.015688	
3.75	  0.078782	  0.047247	  0.016310	
3.8125	  0.080926	  0.047518	  0.017205	
3.875	  0.077504	  0.048651	  0.017706	
3.9375	  0.071797	  0.050033	  0.016935	
4	  0.068253	  0.049304	  0.015564	
4.0625	  0.068954	  0.046692	  0.014855	
4.125	  0.073169	  0.043804	  0.014903	
4.1875	  0.078839	  0.041629	  0.015467	
4.25	  0.082556	  0.040091	  0.015946	
4.3125	  0.082763	  0.039567	  0.016196	
4.375	  0.081735	  0.039810	  0.016523	
4.4375	  0.080712	  0.039881	  0.016560	
4.5	  0.079055	  0.039978	  0.016174	
4.5625	  0.078679	  0.040264	  0.015501	
4.625	  0.080221	  0.040063	  0.014689	
4.6875	  0.080949	  0.039033	  0.014205	
4.75	  0.079010	  0.037709	  0.014708	
4.8125	  0.077852	  0.037858	  0.016484	
4.875	  0.081225	  0.042665	  0.019998	
4.9375	  0.091982	  0.056765	  0.025709	
5	  0.116748	  0.085644	  0.033788	
5.0625	  0.165050	  0.131037	  0.044348	
5.125	  0.239911	  0.189207	  0.057043	
5.1875	  0.329117	  0.255115	  0.070440	
5.25	  0.407617	  0.325022	  0.082074	
5.3125	  0.455505	  0.392150	  0.089275	
5.375	  0.475822	  0.437332	  0.090310	
5.4375	  0.482347	  0.461091	  0.088148	
5.5	  0.497260	  0.478216	  0.087781	
5.5625	  0.544311	  0.499409	  0.091306	
5.625	  0.623751	  0.530539	  0.098823	
5.6875	  0.713545	  0.575159	  0.110205	
5.75	  0.787618	  0.618952	  0.122695	
5.8125	  0.839960	  0.642986	  0.131750	
5.875	  0.865388	  0.642874	  0.134893	
5.9375	  0.865115	  0.615344	  0.134662	
6	  0.837995	  0.569796	  0.131821	
6.0625	  0.791022	  0.514197	  0.126224	
6.125	  0.739862	  0.463697	  0.118382	
6.1875	  0.698349	  0.431037	  0.110413	
6.25	  0.669886	  0.432512	  0.104505	
6.3125	  0.666247	  0.460030	  0.102354	
6.375	  0.678529	  0.493049	  0.103256	
6.4375	  0.683469	  0.511285	  0.103865	
6.5	  0.672644	  0.515151	  0.103923	
6.5625	  0.655313	  0.517818	  0.103974	
6.625	  0.643696	  0.512136	  0.104467	
6.6875	  0.647962	  0.496540	  0.107490	
6.75	  0.656384	  0.490022	  0.112437	
6.8125	  0.657238	  0.496200	  0.115943	
6.875	  0.651298	  0.507759	  0.117570	
6.9375	  0.642499	  0.521175	  0.118719	
7	  0.638894	  0.530123	  0.118290	
7.0625	  0.639418	  0.529546	  0.114915	
7.125	  0.641803	  0.513955	  0.108563	
7.1875	  0.639495	  0.491201	  0.102496	
7.25	  0.632695	  0.475052	  0.098216	
7.3125	  0.625408	  0.461868	  0.095057	
7.375	  0.617650	  0.452563	  0.094176	
7.4375	  0.613409	  0.446681	  0.095423	
7.5	  0.612393	  0.439032	  0.097504	
7.5625	  0.620567	  0.434737	  0.100229	
7.625	  0.640982	  0.442976	  0.104062	
7.6875	  0.673354	  0.466619	  0.109117	
7.75	  0.717788	  0.506538	  0.114469	
7.8125	  0.759285	  0.549768	  0.118365	
7.875	  0.790714	  0.583624	  0.120789	
7.9375	  0.808947	  0.597800	  0.125034	
8	  0.806250	  0.588918	  0.129011	
8.0625	  0.782272	  0.559766	  0.128327	
8.125	  0.745964	  0.530382	  0.123140	
8.1875	  0.721900	  0.508807	  0.119132	
8.25	  0.709717	  0.491941	  0.116122	
8.3125	  0.687981	  0.468179	  0.111750	
8.375	  0.651643	  0.435844	  0.105687	
8.4375	  0.618376	  0.407804	  0.102193	
8.5	  0.604089	  0.397678	  0.103288	
8.5625	  0.611606	  0.405807	  0.106189	
8.625	  0.631602	  0.422502	  0.108914	
8.6875	  0.650788	  0.437244	  0.110054	
8.75	  0.660264	  0.444486	  0.108742	
8.8125	  0.653460	  0.439029	  0.104265	
8.875	  0.619491	  0.418546	  0.099314	
8.9375	  0.571387	  0.396668	  0.096048	
9	  0.533343	  0.385426	  0.095238	
9.0625	  0.516888	  0.385240	  0.097073	
9.125	  0.529899	  0.395720	  0.099631	
9.1875	  0.550934	  0.409340	  0.099547	
9.25	  0.557434	  0.422451	  0.097608	
9.3125	  0.557232	  0.429278	  0.096256	
9.375	  0.563496	  0.431013	  0.097774	
9.4375	  0.584662	  0.434352	  0.102645	
9.5	  0.611560	  0.445877	  0.108289	
9.5625	  0.630313	  0.456758	  0.112007	
9.625	  0.638623	  0.454720	  0.112731	
9.6875	  0.632102	  0.432903	  0.108942	
9.75	  0.602650	  0.399045	  0.099754	
9.8125	  0.553259	  0.356893	  0.086790	
9.875	  0.473528	  0.300710	  0.072349	
9.9375	  0.377652	  0.238337	  0.057480	
10	  0.285089	  0.179589	  0.044941	
10.0625	  0.209039	  0.131870	  0.038278	
10.125	  0.153208	  0.099477	  0.038417	
10.1875	  0.119593	  0.081450	  0.047878	
10.25	  0.105492	  0.074879	  0.065757	
10.3125	  0.100506	  0.073103	  0.082984	
10.375	  0.098072	  0.072076	  0.094446	
10.4375	  0.097384	  0.073681	  0.101076	
10.5	  0.097958	  0.077080	  0.101036	
10.5625	  0.098748	  0.079167	  0.093933	
10.625	  0.098248	  0.076600	  0.080045	
10.6875	  0.097422	  0.071509	  0.066514	
10.75	  0.094514	  0.065408	  0.055412	
10.8125	  0.089466	  0.060177	  0.047901	
10.875	  0.085501	  0.058743	  0.045198	
10.9375	  0.084628	  0.060195	  0.043576	
11	  0.086069	  0.059897	  0.036862	
11.0625	  0.087160	  0.055749	  0.027642	
